<svg version="1.1" id="Layer_1" xmlns="http://www.w3.org/2000/svg" xmlns:xlink="http://www.w3.org/1999/xlink" x="0px" y="0px"
	 width="100%" viewBox="0 0 2048 2048" enable-background="new 0 0 2048 2048" xml:space="preserve">

<path fill="#ffffff" opacity="1.000000" stroke="none" 
	d="
M1088.942871,769.083862 
	C1091.108643,769.055908 1093.274292,769.003479 1095.440063,769.003479 
	C1275.769287,768.999695 1456.098633,769.016357 1636.427856,768.977722 
	C1657.024658,768.973267 1675.232666,775.836914 1691.444824,788.054565 
	C1710.798706,802.639709 1722.507812,822.291565 1727.821777,845.787109 
	C1728.720581,849.761047 1728.951172,853.958008 1728.953369,858.052246 
	C1729.011841,967.216431 1728.876343,1076.380859 1729.111694,1185.544556 
	C1729.155029,1205.611816 1723.789795,1223.727173 1712.413574,1239.927856 
	C1696.847046,1262.095703 1675.724121,1275.931885 1648.647095,1279.981201 
	C1644.757935,1280.562866 1640.798340,1280.957886 1636.871094,1280.958862 
	C1454.541626,1281.001343 1272.212158,1280.990356 1089.445435,1280.985840 
	C1089.008179,1280.985962 1089.081909,1281.054199 1089.081787,1281.054199 
	C1089.054565,1280.055664 1089.003540,1279.057251 1089.003540,1278.058716 
	C1089.004761,1108.667236 1089.009399,939.275696 1089.012573,769.447205 
	C1089.011230,769.010193 1088.942871,769.083862 1088.942871,769.083862 
z"/>
<path fill="#ffffff" opacity="1.000000" stroke="none" 
	d="
M1089.048096,768.976074 
	C1055.086914,768.961365 1021.088867,768.995972 987.090881,768.997375 
	C839.431213,769.003540 691.771362,768.917664 544.111938,769.096802 
	C524.063110,769.121155 506.011719,763.641968 489.832581,752.213684 
	C467.678619,736.565063 453.945557,715.420654 449.980835,688.322083 
	C449.506500,685.079895 449.041718,681.795654 449.040253,678.530762 
	C448.991699,568.869263 449.036591,459.207703 448.967438,349.546265 
	C448.954437,328.927704 455.921356,310.762543 468.075195,294.554413 
	C482.614838,275.164673 502.304169,263.486572 525.801392,258.177429 
	C529.775879,257.279419 533.973145,257.047668 538.067627,257.046204 
	C691.060425,256.991425 844.053223,257.002777 997.046021,256.996704 
	C1017.637634,256.995880 1035.736206,264.174316 1051.890503,276.461365 
	C1070.901733,290.921326 1082.442139,310.256134 1087.687500,333.418579 
	C1088.479736,336.917328 1088.945679,340.572754 1088.947266,344.155975 
	C1089.006104,485.482452 1088.993530,626.808960 1088.966553,768.609680 
	C1088.942871,769.083862 1089.011230,769.010193 1089.048096,768.976074 
z"/>
<path fill="#ffffff" opacity="1.000000" stroke="none" 
	d="
M1088.974121,1280.949097 
	C1088.960083,1349.909424 1088.987793,1418.906738 1088.997803,1487.903931 
	C1089.007812,1557.401611 1088.804810,1626.900146 1089.118652,1696.396484 
	C1089.213135,1717.312622 1083.709961,1736.054565 1071.563965,1752.963867 
	C1056.010376,1774.617065 1035.207764,1787.846924 1008.794556,1791.967896 
	C1004.585388,1792.624634 1000.281189,1792.957031 996.020691,1792.958374 
	C846.025696,1793.007935 696.030579,1792.894165 546.035950,1793.120850 
	C524.964783,1793.152710 506.051880,1787.811279 489.004150,1775.539795 
	C467.362518,1759.961182 454.129425,1739.163452 450.031494,1712.738892 
	C449.377960,1708.524902 449.043701,1704.217163 449.041626,1699.952637 
	C448.988892,1590.956299 449.003815,1481.959961 448.996643,1372.963623 
	C448.995270,1352.372559 456.168182,1334.269775 468.456085,1318.116699 
	C482.916534,1299.107788 502.242737,1287.550415 525.415222,1282.319580 
	C528.915283,1281.529663 532.569458,1281.053833 536.152466,1281.052734 
	C720.146301,1280.995728 904.140198,1281.006104 1088.607910,1281.031738 
	C1089.081909,1281.054199 1089.008179,1280.985962 1088.974121,1280.949097 
z"/>
</svg>