<svg width="1491" height="209" viewBox="0 0 1491 209" fill="none" xmlns="http://www.w3.org/2000/svg">
<path d="M420.06 147.085C409.543 147.085 400.913 144.793 394.195 140.211C387.465 135.628 383.401 129.083 381.992 120.563L400.862 115.651C401.617 119.474 402.9 122.475 404.687 124.652C406.473 126.842 408.7 128.387 411.354 129.323C414.009 130.248 416.915 130.716 420.06 130.716C424.827 130.716 428.35 129.868 430.627 128.184C432.904 126.488 434.049 124.399 434.049 121.88C434.049 119.361 432.967 117.436 430.79 116.069C428.614 114.702 425.154 113.588 420.374 112.714L415.82 111.892C410.184 110.803 405.026 109.296 400.372 107.385C395.704 105.473 391.968 102.827 389.15 99.4474C386.332 96.0673 384.923 91.6998 384.923 86.3576C384.923 78.2809 387.855 72.0905 393.704 67.7736C399.567 63.4694 407.253 61.3047 416.801 61.3047C425.796 61.3047 433.281 63.3302 439.244 67.3559C445.207 71.3942 449.107 76.6858 450.956 83.2307L431.923 89.1173C431.055 84.9777 429.293 82.0281 426.639 80.2811C423.985 78.5341 420.701 77.6606 416.801 77.6606C412.901 77.6606 409.907 78.3442 407.857 79.7114C405.794 81.0786 404.762 82.9649 404.762 85.3575C404.762 87.978 405.844 89.9149 408.02 91.1681C410.184 92.4214 413.115 93.3835 416.801 94.0292L421.355 94.852C427.431 95.9407 432.929 97.3839 437.86 99.1942C442.792 100.992 446.692 103.562 449.572 106.891C452.441 110.22 453.887 114.727 453.887 120.399C453.887 128.906 450.818 135.489 444.691 140.122C438.565 144.768 430.35 147.085 420.047 147.085H420.06Z" fill="#EFEFEF"></path>
<path d="M489.616 146.755C483.326 146.755 477.828 145.312 473.111 142.413C468.393 139.527 464.732 135.514 462.128 130.387C459.524 125.259 458.229 119.36 458.229 112.714V64.2666H478.721V111.081C478.721 117.195 480.206 121.778 483.2 124.829C486.181 127.88 490.434 129.412 495.969 129.412C502.259 129.412 507.14 127.31 510.612 123.107C514.084 118.904 515.82 113.043 515.82 105.511V64.2666H536.313V145.451H516.147V134.817H513.216C511.92 137.552 509.48 140.223 505.894 142.843C502.322 145.464 496.887 146.768 489.628 146.768L489.616 146.755Z" fill="#EFEFEF"></path>
<path d="M550.943 178.188V64.266H571.109V74.0896H574.04C575.877 70.9248 578.758 68.1144 582.658 65.6585C586.558 63.2026 592.143 61.9746 599.414 61.9746C605.918 61.9746 611.944 63.5824 617.467 66.7978C623.002 70.0133 627.443 74.7353 630.802 80.951C634.161 87.1668 635.846 94.6991 635.846 103.535V106.156C635.846 114.992 634.161 122.524 630.802 128.74C627.443 134.956 622.99 139.678 617.467 142.893C611.932 146.109 605.918 147.717 599.414 147.717C594.533 147.717 590.445 147.147 587.136 145.995C583.828 144.856 581.173 143.374 579.161 141.577C577.148 139.779 575.55 137.956 574.368 136.095H571.436V178.162H550.943V178.188ZM593.238 129.74C599.641 129.74 604.925 127.689 609.101 123.6C613.278 119.511 615.366 113.536 615.366 105.675V104.042C615.366 96.1802 613.253 90.205 609.026 86.116C604.799 82.0271 599.54 79.9762 593.25 79.9762C586.96 79.9762 581.702 82.0271 577.475 86.116C573.248 90.205 571.134 96.1802 571.134 104.042V105.675C571.134 113.536 573.248 119.511 577.475 123.6C581.702 127.689 586.96 129.74 593.25 129.74H593.238Z" fill="#EFEFEF"></path>
<path d="M683.35 147.742C675.324 147.742 668.254 146.02 662.128 142.589C656.001 139.146 651.233 134.298 647.811 128.019C644.402 121.739 642.691 114.346 642.691 105.839V103.877C642.691 95.37 644.365 87.977 647.736 81.6979C651.095 75.4189 655.812 70.5703 661.889 67.127C667.965 63.6963 675.01 61.9746 683.036 61.9746C691.062 61.9746 697.843 63.7469 703.692 67.2915C709.542 70.8362 714.109 75.748 717.354 82.0271C720.613 88.3061 722.235 95.5852 722.235 103.877V110.916H663.511C663.725 116.486 665.788 121.005 669.688 124.499C673.588 127.993 678.369 129.74 684.004 129.74C689.64 129.74 693.98 128.487 696.685 125.98C699.39 123.474 701.453 120.689 702.862 117.638L719.619 126.474C718.096 129.31 715.908 132.399 713.027 135.728C710.146 139.058 706.334 141.893 701.554 144.235C696.786 146.577 690.71 147.755 683.338 147.755L683.35 147.742ZM663.662 95.5219H701.403C700.962 90.8253 699.101 87.0655 695.792 84.2298C692.483 81.3941 688.168 79.9762 682.86 79.9762C677.551 79.9762 672.934 81.3941 669.688 84.2298C666.43 87.0655 664.43 90.838 663.675 95.5219H663.662Z" fill="#EFEFEF"></path>
<path d="M732.311 145.451V64.2666H752.476V73.432H755.408C756.603 70.1533 758.578 67.7606 761.345 66.2288C764.113 64.6971 767.334 63.9375 771.019 63.9375H780.782V82.2683H770.692C765.484 82.2683 761.207 83.6608 757.848 86.4459C754.489 89.2309 752.804 93.5098 752.804 99.2951V145.451H732.311Z" fill="#EFEFEF"></path>
<path d="M788.58 145.451V64.2668H808.746V73.103H811.677C813.086 70.3813 815.413 68.0013 818.672 65.9885C821.93 63.9756 826.207 62.9629 831.516 62.9629C837.265 62.9629 841.869 64.0769 845.341 66.3176C848.814 68.5583 851.468 71.47 853.317 75.0779H856.248C858.085 71.5839 860.689 68.6976 864.061 66.4062C867.42 64.1149 872.187 62.9756 878.377 62.9756C883.359 62.9756 887.887 64.0389 891.963 66.1657C896.027 68.2925 899.285 71.508 901.725 75.8248C904.166 80.1417 905.386 85.5599 905.386 92.1174V145.477H884.893V93.5859C884.893 89.1172 883.748 85.7624 881.484 83.5217C879.207 81.281 875.999 80.167 871.885 80.167C867.218 80.167 863.62 81.6734 861.067 84.6737C858.513 87.674 857.242 91.9529 857.242 97.523V145.489H836.749V93.5986C836.749 89.1298 835.604 85.7751 833.34 83.5344C831.063 81.2937 827.855 80.1796 823.741 80.1796C819.074 80.1796 815.476 81.6861 812.923 84.6864C810.369 87.6866 809.098 91.9655 809.098 97.5356V145.502H788.605L788.58 145.451Z" fill="#EFEFEF"></path>
<path d="M956.124 147.742C948.098 147.742 941.028 146.02 934.901 142.589C928.775 139.146 924.007 134.298 920.585 128.019C917.176 121.739 915.465 114.346 915.465 105.839V103.877C915.465 95.37 917.138 87.977 920.509 81.6979C923.868 75.4189 928.586 70.5703 934.662 67.127C940.738 63.6963 947.783 61.9746 955.809 61.9746C963.835 61.9746 970.616 63.7469 976.466 67.2915C982.315 70.8362 986.882 75.748 990.128 82.0271C993.386 88.3061 995.009 95.5852 995.009 103.877V110.916H936.285C936.499 116.486 938.562 121.005 942.462 124.499C946.362 127.993 951.142 129.74 956.778 129.74C962.414 129.74 966.754 128.487 969.471 125.98C972.176 123.474 974.239 120.689 975.648 117.638L992.405 126.474C990.883 129.31 988.694 132.399 985.813 135.728C982.932 139.058 979.12 141.893 974.34 144.235C969.572 146.577 963.496 147.755 956.124 147.755V147.742ZM936.448 95.5219H974.189C973.748 90.8253 971.887 87.0655 968.578 84.2298C965.269 81.3941 960.954 79.9762 955.646 79.9762C950.337 79.9762 945.72 81.3941 942.474 84.2298C939.216 87.0655 937.216 90.838 936.461 95.5219H936.448Z" fill="#EFEFEF"></path>
<path d="M1005.08 145.451V64.2668H1025.25V73.103H1028.18C1029.59 70.3813 1031.92 68.0013 1035.18 65.9885C1038.43 63.9756 1042.71 62.9629 1048.02 62.9629C1053.77 62.9629 1058.37 64.0769 1061.85 66.3176C1065.32 68.5583 1067.97 71.47 1069.82 75.0779H1072.75C1074.59 71.5839 1077.19 68.6976 1080.56 66.4062C1083.92 64.1149 1088.69 62.9756 1094.88 62.9756C1099.86 62.9756 1104.39 64.0389 1108.47 66.1657C1112.53 68.2925 1115.79 71.508 1118.23 75.8248C1120.67 80.1417 1121.89 85.5599 1121.89 92.1174V145.477H1101.4V93.5859C1101.4 89.1172 1100.25 85.7624 1097.99 83.5217C1095.71 81.281 1092.5 80.167 1088.39 80.167C1083.72 80.167 1080.12 81.6734 1077.57 84.6737C1075.02 87.674 1073.75 91.9529 1073.75 97.523V145.489H1053.25V93.5986C1053.25 89.1298 1052.11 85.7751 1049.84 83.5344C1047.57 81.2937 1044.36 80.1796 1040.25 80.1796C1035.58 80.1796 1031.98 81.6861 1029.43 84.6864C1026.87 87.6866 1025.6 91.9655 1025.6 97.5356V145.502H1005.11L1005.08 145.451Z" fill="#EFEFEF"></path>
<path d="M1174.26 147.742C1166.24 147.742 1159.03 146.109 1152.62 142.83C1146.22 139.551 1141.18 134.804 1137.49 128.588C1133.8 122.372 1131.96 114.891 1131.96 106.168V103.548C1131.96 94.813 1133.79 87.344 1137.49 81.1282C1141.18 74.9125 1146.22 70.1652 1152.62 66.8864C1159.01 63.6077 1166.24 61.9746 1174.26 61.9746C1182.29 61.9746 1189.5 63.6077 1195.9 66.8864C1202.29 70.1652 1207.33 74.9125 1211.03 81.1282C1214.72 87.344 1216.56 94.8257 1216.56 103.548V106.168C1216.56 114.903 1214.71 122.372 1211.03 128.588C1207.35 134.804 1202.3 139.551 1195.9 142.83C1189.5 146.109 1182.29 147.742 1174.26 147.742ZM1174.26 129.411C1180.55 129.411 1185.75 127.36 1189.87 123.271C1194 119.182 1196.05 113.308 1196.05 105.675V104.042C1196.05 96.4081 1194.01 90.5342 1189.95 86.4452C1185.89 82.3562 1180.65 80.3054 1174.25 80.3054C1167.85 80.3054 1162.75 82.3562 1158.64 86.4452C1154.51 90.5342 1152.46 96.4081 1152.46 104.042V105.675C1152.46 113.308 1154.51 119.182 1158.64 123.271C1162.76 127.36 1167.96 129.411 1174.25 129.411H1174.26Z" fill="#EFEFEF"></path>
<path d="M1227.29 145.451V64.2666H1247.45V73.432H1250.38C1251.58 70.1533 1253.55 67.7606 1256.32 66.2288C1259.09 64.6971 1262.31 63.9375 1266 63.9375H1275.76V82.2683H1265.67C1260.46 82.2683 1256.18 83.6608 1252.82 86.4459C1249.47 89.2309 1247.78 93.5098 1247.78 99.2951V145.451H1227.29Z" fill="#EFEFEF"></path>
<path d="M1292.35 178.188V160.187H1336.27C1339.3 160.187 1340.82 158.554 1340.82 155.275V134.817H1337.89C1337.02 136.678 1335.66 138.526 1333.83 140.387C1331.98 142.248 1329.49 143.767 1326.34 144.97C1323.2 146.173 1319.18 146.768 1314.3 146.768C1308.01 146.768 1302.5 145.325 1297.8 142.426C1293.08 139.539 1289.42 135.526 1286.81 130.399C1284.21 125.272 1282.91 119.373 1282.91 112.727V64.2666H1303.41V111.081C1303.41 117.195 1304.89 121.778 1307.89 124.829C1310.87 127.88 1315.12 129.412 1320.65 129.412C1326.94 129.412 1331.83 127.31 1335.3 123.107C1338.77 118.904 1340.51 113.043 1340.51 105.511V64.2666H1361V159.858C1361 165.428 1359.38 169.871 1356.12 173.2C1352.86 176.53 1348.52 178.188 1343.11 178.188H1292.36H1292.35Z" fill="#EFEFEF"></path>
<path d="M310.876 89.2205H243.749V31H222.061V94.1703C222.061 100.88 224.715 107.323 229.432 112.071L284.244 167.228L299.579 151.796L259.096 111.058H310.889V89.2331L310.876 89.2205Z" fill="#EFEFEF"></path>
<path d="M141.31 57.8117L181.792 98.5495H130V120.374H197.127V178.595H218.815V115.424C218.815 108.715 216.161 102.271 211.444 97.5241L156.645 42.3799L141.31 57.8117Z" fill="#EFEFEF"></path>
</svg>
